<?xml version="1.0" encoding="utf-8"?>
<!-- Generator: Adobe Illustrator 25.4.1, SVG Export Plug-In . SVG Version: 6.00 Build 0)  -->
<svg version="1.1" id="Layer_1" xmlns="http://www.w3.org/2000/svg" xmlns:xlink="http://www.w3.org/1999/xlink" x="0px" y="0px"
	 viewBox="0 0 145 48" style="enable-background:new 0 0 145 48;" xml:space="preserve">
<style type="text/css">
	.st0{fill:url(#Path_260_00000125560686424124524000000003294183801908446342_);}
	.st1{fill:url(#Path_261_00000034072387045707205640000008582294915352802447_);}
	.st2{fill:url(#Path_262_00000135668640435833693240000001410644868669249718_);}
	.st3{fill:url(#Path_263_00000183950351660875750110000001531625092549843079_);}
	.st4{fill:url(#Path_264_00000115485715619621488570000011081090826170167937_);}
	.st5{fill:#FFFFFF;}
	.st6{opacity:0.99;fill:url(#Path_291_00000093170850353038621630000011542749292088459688_);enable-background:new    ;}
	.st7{fill:url(#Path_292_00000102511187213296187470000007998393801439219870_);}
	.st8{fill:url(#Path_293_00000159439047411229282340000003253807544401266615_);}
	.st9{fill:url(#Path_294_00000174574019839118499960000003270369693941954726_);}
</style>
<g id="Group_512" transform="translate(-106.553 -416.618)">
	<g id="Group_509" transform="translate(143.621 433.234)">
		
			<linearGradient id="Path_260_00000141442656033323239510000011119758442849912754_" gradientUnits="userSpaceOnUse" x1="-245.0574" y1="408.6529" x2="-251.5454" y2="408.6039" gradientTransform="matrix(20.314 0 0 -20.2 5089.3149 8264.6572)">
			<stop  offset="0" style="stop-color:#FFD400"/>
			<stop  offset="0.675" style="stop-color:#FFA700"/>
			<stop  offset="1" style="stop-color:#FFA500"/>
		</linearGradient>
		<path id="Path_260" style="fill:url(#Path_260_00000141442656033323239510000011119758442849912754_);" d="M14.4,17.1H6.8
			l-1.2,3.6H0.5L7.8,0.5h5.7l7.3,20.2h-5.2L14.4,17.1z M10.6,5.9l-2.5,7.4h5L10.6,5.9z"/>
		
			<linearGradient id="Path_261_00000134953320375640185540000011667198825373719451_" gradientUnits="userSpaceOnUse" x1="-244.4075" y1="408.6447" x2="-251.7015" y2="408.5966" gradientTransform="matrix(18.065 0 0 -20.2 4526.4121 8264.6621)">
			<stop  offset="0" style="stop-color:#FFD400"/>
			<stop  offset="0.675" style="stop-color:#FFA700"/>
			<stop  offset="1" style="stop-color:#FFA500"/>
		</linearGradient>
		<path id="Path_261" style="fill:url(#Path_261_00000134953320375640185540000011667198825373719451_);" d="M44,0.5v20.2H39
			L30.8,8.2v12.5h-4.9V0.5h4.9L39,13V0.5H44z"/>
		
			<linearGradient id="Path_262_00000040536321877776189420000003290538537049007799_" gradientUnits="userSpaceOnUse" x1="-243.2198" y1="408.6331" x2="-251.6558" y2="408.5841" gradientTransform="matrix(15.622 0 0 -20.195 3910.783 8262.5166)">
			<stop  offset="0" style="stop-color:#FFD400"/>
			<stop  offset="0.675" style="stop-color:#FFA700"/>
			<stop  offset="1" style="stop-color:#FFA500"/>
		</linearGradient>
		<path id="Path_262" style="fill:url(#Path_262_00000040536321877776189420000003290538537049007799_);" d="M49.3,0.5h15.6v3.9
			h-5.4v16.3h-4.9V4.4h-5.4L49.3,0.5z"/>
		
			<linearGradient id="Path_263_00000080191014031955074880000009742669754537126542_" gradientUnits="userSpaceOnUse" x1="-240.0888" y1="408.6298" x2="-250.7408" y2="408.5808" gradientTransform="matrix(12.371 0 0 -20.2 3081.3389 8264.6592)">
			<stop  offset="0" style="stop-color:#FFD400"/>
			<stop  offset="0.675" style="stop-color:#FFA700"/>
			<stop  offset="1" style="stop-color:#FFA500"/>
		</linearGradient>
		<path id="Path_263" style="fill:url(#Path_263_00000080191014031955074880000009742669754537126542_);" d="M82.6,4.4h-7.5v4.1h6.6
			v3.8h-6.6v4.4h7.5v3.9H70.3V0.5h12.4L82.6,4.4z"/>
		
			<linearGradient id="Path_264_00000084529955665900354970000001882521642856446864_" gradientUnits="userSpaceOnUse" x1="-248.6294" y1="408.6171" x2="-255.4974" y2="408.5691" gradientTransform="matrix(19.188 0 0 -20.195 4881.9048 8262.5039)">
			<stop  offset="0" style="stop-color:#FFD400"/>
			<stop  offset="0.675" style="stop-color:#FFA700"/>
			<stop  offset="1" style="stop-color:#FFA500"/>
		</linearGradient>
		<path id="Path_264" style="fill:url(#Path_264_00000084529955665900354970000001882521642856446864_);" d="M97,14.5l-3.6,6.2h-5.6
			l6.5-10.3l-6.6-9.9h5.7l4.1,6.1l3.6-6.1h5.6l-6.4,10.2l6.7,10h-5.7L97,14.5z"/>
	</g>
	<g id="Group_510" transform="translate(143.81 457.584)">
		<path id="Path_265" class="st5" d="M3.2,4H1.3L0.9,5H0.5L2,0.9h0.5L4,5H3.5L3.2,4z M2.2,1.4L1.4,3.6H3L2.2,1.4z"/>
		<path id="Path_266" class="st5" d="M10,3H7.8V5H7.4V0.8h0.4v1.9H10V0.8h0.4V5H10V3z"/>
		<path id="Path_267" class="st5" d="M14.8,5h-0.4V4.4C14.2,4.8,13.7,5,13.3,5c-0.7,0-1.3-0.5-1.3-1.2c0-0.1,0-0.1,0-0.2V1.7h0.4
			v1.8c-0.1,0.5,0.3,1,0.8,1.1c0.1,0,0.1,0,0.2,0c0.6,0,1-0.4,1-1.2V1.7h0.4L14.8,5z"/>
		<path id="Path_268" class="st5" d="M18,1.7c0.9,0.1,1.6,0.9,1.5,1.8C19.5,4.3,18.8,4.9,18,5c-0.5,0-1-0.3-1.3-0.8V5h-0.4V0.6h0.4
			v1.9C17,2,17.5,1.7,18,1.7z M17.9,2.1c-0.7,0-1.3,0.7-1.2,1.4c0,0.6,0.6,1.2,1.2,1.2c0.7,0,1.2-0.5,1.2-1.2c0,0,0-0.1,0-0.1
			c0.1-0.6-0.4-1.2-1-1.3C18,2.1,18,2.1,17.9,2.1L17.9,2.1z"/>
		<path id="Path_269" class="st5" d="M24.5,5c-0.9,0-1.7-0.7-1.7-1.6c0-0.9,0.7-1.7,1.6-1.7s1.7,0.7,1.7,1.6c0,0,0,0,0,0
			c0,0.9-0.6,1.6-1.5,1.7C24.6,5,24.5,5,24.5,5z M24.5,4.6c0.7,0.1,1.3-0.5,1.4-1.2c0.1-0.7-0.5-1.3-1.2-1.4C24,2,23.4,2.5,23.3,3.2
			c0,0,0,0.1,0,0.1c-0.1,0.6,0.4,1.2,1,1.3C24.4,4.6,24.4,4.6,24.5,4.6z"/>
		<path id="Path_270" class="st5" d="M27.6,2.1h-0.4V1.7h0.4V1.5c0-0.7,0.3-1,1.1-1v0.4c-0.5,0-0.7,0.2-0.7,0.7v0.2h0.7v0.3H28V5
			h-0.4V2.1z"/>
		<path id="Path_271" class="st5" d="M35.9,2h-0.5c-0.2-0.6-0.8-0.9-1.4-0.9c-1,0.1-1.7,0.9-1.6,1.8c0.1,0.9,0.7,1.6,1.6,1.6
			c0.8,0,1.5-0.6,1.6-1.5c0,0,0,0,0,0h-1.7V2.8H36v0.3C36,4.2,35.1,5,34,5c-1.2,0-2.1-1-2-2.2c0-1.1,0.9-2,2-2
			C34.8,0.8,35.6,1.3,35.9,2z"/>
		<path id="Path_272" class="st5" d="M37.4,0.6h0.4V5h-0.4V0.6z"/>
		<path id="Path_273" class="st5" d="M40.7,5C39.8,5,39,4.3,39,3.4c0-0.9,0.7-1.7,1.6-1.7s1.7,0.7,1.7,1.6c0,0,0,0,0,0
			c0,0.9-0.6,1.6-1.5,1.7C40.8,5,40.7,5,40.7,5z M40.7,4.6c0.7,0.1,1.3-0.5,1.4-1.2c0.1-0.7-0.5-1.3-1.2-1.4
			c-0.7-0.1-1.3,0.5-1.4,1.2c0,0,0,0.1,0,0.1c-0.1,0.6,0.4,1.2,1,1.3C40.6,4.6,40.6,4.6,40.7,4.6z"/>
		<path id="Path_274" class="st5" d="M45.3,1.7c0.9,0.1,1.6,0.9,1.5,1.8c-0.1,0.8-0.7,1.5-1.5,1.5c-0.5,0-1-0.3-1.3-0.8V5h-0.4V0.6
			h0.4v1.9C44.3,2,44.8,1.7,45.3,1.7z M45.3,2.1c-0.7,0-1.3,0.7-1.2,1.4c0,0.6,0.6,1.2,1.2,1.2c0.7,0,1.2-0.5,1.2-1.2
			c0,0,0-0.1,0-0.1c0.1-0.6-0.4-1.2-1-1.3C45.4,2.1,45.3,2.1,45.3,2.1z"/>
		<path id="Path_275" class="st5" d="M49.6,1.7c0.5,0,1,0.3,1.3,0.8V1.7h0.4V5h-0.4V4.2C50.6,4.7,50.1,5,49.6,5
			C48.7,4.9,48,4.1,48,3.2C48.1,2.4,48.8,1.8,49.6,1.7L49.6,1.7z M49.7,2.1c-0.6,0-1.2,0.5-1.2,1.1c0,0,0,0.1,0,0.1
			c0.1,0.7,0.6,1.2,1.3,1.1c0.7-0.1,1.2-0.6,1.1-1.3C50.8,2.5,50.3,2.1,49.7,2.1z"/>
		<path id="Path_276" class="st5" d="M52.8,0.6h0.4V5h-0.4V0.6z"/>
		<path id="Path_277" class="st5" d="M60.3,2.9c0.1,1.1-0.7,2-1.8,2.1c-0.1,0-0.2,0-0.4,0h-1.2V0.8h1.2c1.1-0.1,2,0.6,2.2,1.7
			C60.3,2.7,60.3,2.8,60.3,2.9z M58.2,4.6c0.9,0,1.7-0.7,1.8-1.7c0-0.9-0.7-1.7-1.7-1.8c0,0-0.1,0-0.1,0h-0.8v3.4H58.2z"/>
		<path id="Path_278" class="st5" d="M61.6,0.8c0-0.2,0.1-0.3,0.3-0.3c0.2,0,0.3,0.1,0.3,0.3l0,0c0,0.2-0.1,0.3-0.3,0.3
			C61.7,1.1,61.6,1,61.6,0.8z M61.7,1.7h0.4V5h-0.4L61.7,1.7z"/>
		<path id="Path_279" class="st5" d="M65,1.7c0.5,0,1,0.3,1.3,0.7V1.7h0.4V5c0,0.9-0.8,1.5-1.6,1.5c-0.7,0-1.2-0.5-1.4-1.1H64
			c0.2,0.5,0.6,0.8,1.1,0.7c0.6,0,1.1-0.4,1.1-1c0,0,0-0.1,0-0.1V4.2C66,4.7,65.5,5,65,5c-0.9-0.1-1.6-0.9-1.5-1.8
			C63.5,2.4,64.1,1.8,65,1.7L65,1.7z M65,2.1c-0.6,0-1.2,0.5-1.2,1.1c0,0,0,0.1,0,0.1c0.1,0.7,0.6,1.2,1.3,1.1
			c0.7-0.1,1.2-0.6,1.1-1.3C66.2,2.5,65.7,2.1,65,2.1z"/>
		<path id="Path_280" class="st5" d="M68.1,0.8c0-0.2,0.1-0.3,0.3-0.3c0.2,0,0.3,0.1,0.3,0.3l0,0c0,0.2-0.1,0.3-0.3,0.3
			C68.2,1.1,68.1,1,68.1,0.8z M68.2,1.7h0.4V5h-0.4V1.7z"/>
		<path id="Path_281" class="st5" d="M70.2,2.1h-0.4V1.7h0.4V0.9h0.4v0.8h0.9v0.3h-0.9v2c0,0.4,0.1,0.5,0.5,0.5h0.4V5h-0.4
			c-0.6,0-0.9-0.2-0.9-0.9L70.2,2.1z"/>
		<path id="Path_282" class="st5" d="M74.2,1.7c0.5,0,1,0.3,1.3,0.8V1.7h0.4V5h-0.4V4.2C75.2,4.7,74.7,5,74.2,5
			c-0.9-0.1-1.6-0.9-1.5-1.8C72.7,2.4,73.3,1.8,74.2,1.7L74.2,1.7z M74.2,2.1C73.6,2,73,2.5,73,3.2c0,0,0,0.1,0,0.1
			c0.1,0.7,0.6,1.2,1.3,1.1c0.7-0.1,1.2-0.6,1.1-1.3C75.4,2.5,74.9,2.1,74.2,2.1z"/>
		<path id="Path_283" class="st5" d="M77.4,0.6h0.4V5h-0.4V0.6z"/>
		<path id="Path_284" class="st5" d="M81.5,0.8h2.2v0.3h-1.8v1.5h1.5v0.3h-1.5V5h-0.4V0.8z"/>
		<path id="Path_285" class="st5" d="M84.9,0.8c0-0.2,0.1-0.3,0.3-0.3c0.2,0,0.3,0.1,0.3,0.3l0,0c0,0.2-0.1,0.3-0.3,0.3
			C85,1.1,84.9,1,84.9,0.8z M85,1.7h0.4V5H85V1.7z"/>
		<path id="Path_286" class="st5" d="M89.4,3.1c0.1-0.5-0.3-1-0.8-1.1c-0.1,0-0.1,0-0.2,0c-0.6,0-1,0.4-1,1.2V5h-0.4V1.7h0.4v0.5
			c0.2-0.4,0.6-0.6,1.1-0.6c0.7,0,1.3,0.5,1.3,1.2c0,0.1,0,0.1,0,0.2V5h-0.4L89.4,3.1z"/>
		<path id="Path_287" class="st5" d="M92.6,1.7c0.5,0,1,0.3,1.3,0.8V1.7h0.4V5h-0.4V4.2C93.6,4.7,93.1,5,92.6,5
			c-0.9-0.1-1.6-0.9-1.5-1.8C91.1,2.4,91.8,1.8,92.6,1.7L92.6,1.7z M92.7,2.1c-0.6,0-1.2,0.5-1.2,1.1c0,0,0,0.1,0,0.1
			c0.1,0.7,0.6,1.2,1.3,1.1c0.7-0.1,1.2-0.6,1.1-1.3C93.8,2.5,93.3,2.1,92.7,2.1z"/>
		<path id="Path_288" class="st5" d="M98.2,3.1c0.1-0.5-0.3-1-0.8-1.1c-0.1,0-0.1,0-0.2,0c-0.6,0-1,0.4-1,1.2V5h-0.4V1.7h0.4v0.5
			c0.2-0.4,0.6-0.6,1.1-0.6c0.7,0,1.3,0.5,1.3,1.2c0,0.1,0,0.1,0,0.2V5h-0.4L98.2,3.1z"/>
		<path id="Path_289" class="st5" d="M101.5,1.7c0.7-0.1,1.3,0.4,1.5,1.1h-0.4c-0.1-0.5-0.6-0.8-1-0.7c-0.7,0.1-1.2,0.8-1.1,1.5
			c0.1,0.6,0.5,1.1,1.1,1.1c0.5,0,0.9-0.3,1-0.7h0.4c-0.2,0.7-0.8,1.2-1.5,1.1c-0.9-0.1-1.6-0.8-1.6-1.8
			C100,2.4,100.7,1.8,101.5,1.7L101.5,1.7z"/>
		<path id="Path_290" class="st5" d="M105.7,5c-0.9,0-1.6-0.8-1.6-1.7c0-0.9,0.7-1.5,1.6-1.6c0.8,0,1.5,0.6,1.5,1.4c0,0,0,0.1,0,0.1
			c0,0.1,0,0.2,0,0.3h-2.7c0,0.6,0.5,1.1,1.1,1.1c0,0,0,0,0.1,0c0.5,0,0.9-0.3,1-0.7h0.4C107,4.6,106.4,5.1,105.7,5z M104.6,3.2h2.3
			c0-0.6-0.4-1.1-1-1.1c0,0-0.1,0-0.1,0C105.1,2,104.6,2.5,104.6,3.2C104.6,3.1,104.6,3.2,104.6,3.2L104.6,3.2z"/>
	</g>
	
		<radialGradient id="Path_291_00000117665235223685766400000006850891454226867888_" cx="-101.3492" cy="833.6843" r="1.503" gradientTransform="matrix(14.1329 0 0 -14.1331 1561.6514 12218.8281)" gradientUnits="userSpaceOnUse">
		<stop  offset="0" style="stop-color:#FFD400"/>
		<stop  offset="0.675" style="stop-color:#FFA700"/>
		<stop  offset="1" style="stop-color:#FFA500"/>
	</radialGradient>
	
		<path id="Path_291" style="opacity:0.99;fill:url(#Path_291_00000117665235223685766400000006850891454226867888_);enable-background:new    ;" d="
		M130.9,434.5c1.4,1.2,1.6,3.3,0.4,4.7c-1.2,1.4-3.3,1.6-4.7,0.4c-1.4-1.2-1.6-3.3-0.4-4.7c1.1-1.3,3-1.6,4.4-0.6
		c-3.2-2.3-7.6-1.5-9.9,1.7c-2.3,3.2-1.5,7.6,1.7,9.9c3.2,2.3,7.6,1.5,9.9-1.7C134.5,441.1,133.9,436.9,130.9,434.5z"/>
	
		<radialGradient id="Path_292_00000004537431511605970220000001524176019727504533_" cx="-110.4783" cy="849.4058" r="1.076" fx="-110.5926" fy="849.4058" gradientTransform="matrix(32.3873 0 0 -32.3908 3703.2524 27954.2676)" gradientUnits="userSpaceOnUse">
		<stop  offset="0" style="stop-color:#FFD400"/>
		<stop  offset="0.675" style="stop-color:#FFA700"/>
		<stop  offset="1" style="stop-color:#FFA500"/>
	</radialGradient>
	<path id="Path_292" style="fill:url(#Path_292_00000004537431511605970220000001524176019727504533_);" d="M140.4,437.3
		c-2.2-0.4-4.3-1.3-6.1-2.7c-0.5-0.4-0.9-0.8-1.5-1.2l0,0l0,0c-1.9-1.4-4.1-2.3-6.4-2.8c-1.7-0.3-3.5-0.4-5.2-0.2
		c-0.4,0-0.8,0.1-1.2,0.2l0,0c-1.3,0.2-2.6,0.6-3.8,1.2c-0.1,0.1-0.1,0.1-0.2,0.2c-0.6,0.3-1.1,0.6-1.7,1h0l0,0
		c-7.5,4.9-9.6,14.9-4.7,22.4c4.9,7.5,14.9,9.6,22.4,4.7c5.8-3.8,8.6-10.9,6.9-17.6l0,0C142,437.8,140.4,437.3,140.4,437.3z
		 M125.8,449.4c-4.8,0-8.7-3.9-8.7-8.7s3.9-8.7,8.7-8.7c4.8,0,8.7,3.9,8.7,8.7l0,0C134.4,445.5,130.5,449.4,125.8,449.4L125.8,449.4
		z"/>
	<g id="Group_511" transform="translate(115.898 416.618)">
		
			<linearGradient id="Path_293_00000152239671601733386230000004506693546108501409_" gradientUnits="userSpaceOnUse" x1="-222.2168" y1="417.9294" x2="-222.6348" y2="417.1764" gradientTransform="matrix(20.7462 0 0 -14.6 4627.2202 6106.1416)">
			<stop  offset="0" style="stop-color:#FFD400"/>
			<stop  offset="0.675" style="stop-color:#FFA700"/>
			<stop  offset="1" style="stop-color:#FFA500"/>
		</linearGradient>
		<path id="Path_293" style="fill:url(#Path_293_00000152239671601733386230000004506693546108501409_);" d="M21,9.9
			c-8.2-0.7-10.8-9.4-10.8-9.4c-3.9,9.1-7.6,13-9.7,14.6c1.2-0.6,2.5-1,3.8-1.2c2.4-3.2,4.3-6.8,5.6-10.6
			c5.9,10.4,10.7,9.1,10.7,9.1C21.8,11.7,21,9.9,21,9.9z M7.4,13.6c-0.7,0-1.4,0-2.1,0.1c1.9-0.2,3.7-0.1,5.6,0.2
			c-0.6-0.1-1.3-0.2-1.9-0.3c1.8-1.3,3.4-2.9,4.6-4.7L12.8,8C10.4,11.5,8.5,13,7.4,13.6L7.4,13.6z"/>
		
			<linearGradient id="Path_294_00000039100565166332269730000015410778752570344631_" gradientUnits="userSpaceOnUse" x1="-216.3709" y1="411.1743" x2="-217.0249" y2="410.2433" gradientTransform="matrix(13.2628 0 0 -11.8063 2890.6165 4861.8633)">
			<stop  offset="0" style="stop-color:#FFD400"/>
			<stop  offset="0.675" style="stop-color:#FFA700"/>
			<stop  offset="1" style="stop-color:#FFA500"/>
		</linearGradient>
		<path id="Path_294" style="fill:url(#Path_294_00000039100565166332269730000015410778752570344631_);" d="M27,9.7
			c-8-1.1-10-9.2-10-9.2c-0.9,2-1.9,3.9-3,5.7l0,0c0.3,0.3,0.6,0.6,0.9,0.8c0.8-1.2,1.4-2.5,2-3.9c5.2,9.9,9.5,9.1,9.5,9.1
			C27.9,11.5,27,9.7,27,9.7z"/>
	</g>
</g>
</svg>
